<?xml version="1.0" encoding="UTF-8" standalone="no"?>
<!-- Created with Inkscape (http://www.inkscape.org/) -->

<svg
   width="51.40807mm"
   height="29.588051mm"
   viewBox="0 0 51.408069 29.588051"
   version="1.1"
   id="svg1"
   inkscape:version="1.4.4 (dcaf3e7d9e, 2026-05-05)"
   sodipodi:docname="g11.svg"
   xmlns:inkscape="http://www.inkscape.org/namespaces/inkscape"
   xmlns:sodipodi="http://sodipodi.sourceforge.net/DTD/sodipodi-0.dtd"
   xmlns="http://www.w3.org/2000/svg"
   xmlns:svg="http://www.w3.org/2000/svg">
  <sodipodi:namedview
     id="namedview1"
     pagecolor="#ffffff"
     bordercolor="#000000"
     borderopacity="0.25"
     inkscape:showpageshadow="2"
     inkscape:pageopacity="0.0"
     inkscape:pagecheckerboard="0"
     inkscape:deskcolor="#d1d1d1"
     inkscape:document-units="px"
     inkscape:zoom="1.7134046"
     inkscape:cx="93.964963"
     inkscape:cy="113.22486"
     inkscape:window-width="1704"
     inkscape:window-height="902"
     inkscape:window-x="12"
     inkscape:window-y="60"
     inkscape:window-maximized="1"
     inkscape:current-layer="layer6">
    <inkscape:page
       x="0"
       y="2.890045e-24"
       width="51.40807"
       height="29.588053"
       id="page2"
       margin="0"
       bleed="0" />
  </sodipodi:namedview>
  <defs
     id="defs1">
    <inkscape:path-effect
       effect="spiro"
       id="path-effect18-0"
       is_visible="true"
       lpeversion="1" />
    <inkscape:path-effect
       effect="spiro"
       id="path-effect19-6"
       is_visible="true"
       lpeversion="1" />
    <inkscape:path-effect
       effect="spiro"
       id="path-effect20-3"
       is_visible="true"
       lpeversion="1" />
  </defs>
  <g
     inkscape:groupmode="layer"
     id="layer6"
     inkscape:label="final"
     transform="translate(-3.1751012,-7.9861922)">
    <g
       id="g11"
       style="fill:#e3e2db;fill-opacity:1">
      <g
         id="text9"
         style="font-size:9.1866px;line-height:7.61471px;font-family:Flamenco;-inkscape-font-specification:Flamenco;fill:#e3e2db;stroke-width:49.3634;fill-opacity:1"
         aria-label="Crônicas&#10;do Mar">
        <path
           d="m 7.676535,25.076116 q 0.064306,-0.09187 0.1469856,-0.09187 0.082679,0 0.1745454,0.08268 0.1010526,0.07349 0.1010526,0.146986 0,0.07349 -0.05512,0.137799 -0.7716744,0.927847 -2.1221045,0.927847 -1.194258,0 -1.9475592,-0.790048 -0.7533011,-0.799234 -0.7533011,-2.085358 0,-1.286124 0.7533011,-2.085358 0.7533012,-0.808421 1.8924396,-0.808421 1.1483249,0 1.9108127,0.440957 0.137799,0.07349 0.137799,0.192918 v 0.790048 q 0,0.09187 -0.073493,0.156172 -0.073493,0.05512 -0.1745454,0.05512 -0.1010526,0 -0.1745454,-0.05512 -0.073493,-0.06431 -0.073493,-0.156172 V 21.25449 Q 6.739501,20.942146 5.9218937,20.942146 q -0.9829662,0 -1.5984684,0.688995 -0.6063156,0.679808 -0.6063156,1.763827 0,1.084019 0.6063156,1.773014 0.6155022,0.679808 1.6627746,0.679808 1.0564589,0 1.6903351,-0.771674 z m 0.9829716,-2.32421 h 0.4685166 q 0.5787558,0 0.597129,0.624689 0.4960768,-0.716555 1.1758848,-0.716555 0.385837,0 0.652249,0.146986 0.128612,0.07349 0.128612,0.192918 v 0.771675 q 0,0.09187 -0.07349,0.156172 -0.07349,0.05512 -0.174545,0.05512 -0.101053,0 -0.174546,-0.05512 -0.07349,-0.06431 -0.07349,-0.156172 v -0.643062 q -0.119426,-0.04593 -0.358278,-0.04593 -0.238851,0 -0.542009,0.229665 -0.303158,0.220478 -0.5236364,0.661435 v 2.094545 q 0,0.09187 -0.073493,0.146985 -0.073493,0.06431 -0.1745454,0.06431 -0.1010526,0 -0.1745454,-0.06431 -0.073493,-0.05512 -0.073493,-0.146985 v -2.710047 q 0,-0.174546 -0.183732,-0.174546 H 8.6595066 q -0.091866,0 -0.1561721,-0.05512 -0.05512,-0.06431 -0.05512,-0.156172 0,-0.09187 0.05512,-0.156173 0.064306,-0.06431 0.1561721,-0.06431 z m 5.3282224,3.105071 q 0.560382,0 0.909473,-0.385837 0.358278,-0.385837 0.358278,-0.992153 0,-0.615502 -0.358278,-1.001339 -0.349091,-0.395024 -0.909473,-0.395024 -0.560383,0 -0.91866,0.395024 -0.349091,0.385837 -0.349091,1.001339 0,0.606316 0.349091,0.992153 0.358277,0.385837 0.91866,0.385837 z m -1.276937,-0.08268 q -0.48689,-0.51445 -0.48689,-1.304498 0,-0.790047 0.496076,-1.29531 0.496077,-0.51445 1.267751,-0.51445 0.771674,0 1.258564,0.51445 0.496076,0.505263 0.496076,1.304497 0,0.790048 -0.496076,1.295311 -0.48689,0.505263 -1.267751,0.505263 -0.771674,0 -1.26775,-0.505263 z m 0.670621,-3.738947 q -0.05512,-0.05512 -0.05512,-0.110239 0,-0.05512 0.04593,-0.110239 l 0.40421,-0.532823 q 0.07349,-0.101052 0.202105,-0.101052 0.128613,0 0.202106,0.101052 l 0.40421,0.532823 q 0.04593,0.05512 0.04593,0.110239 0,0.05512 -0.05512,0.101053 -0.04593,0.04593 -0.101052,0.04593 l -0.137799,-0.07349 -0.358278,-0.376651 -0.358277,0.376651 q -0.07349,0.07349 -0.137799,0.07349 z m 3.43579,1.148325 h -0.43177 q -0.09187,0 -0.156172,-0.05512 -0.05512,-0.06431 -0.05512,-0.156172 0,-0.09187 0.05512,-0.156173 0.06431,-0.06431 0.156172,-0.06431 h 0.496076 q 0.56957,0 0.56957,0.624689 0.551196,-0.716555 1.387176,-0.716555 0.496077,0 0.808421,0.257225 0.321531,0.248038 0.321531,0.734928 v 1.929186 q 0,0.174545 0.248038,0.174545 h 0.358278 q 0.09187,0 0.146985,0.06431 0.06431,0.06431 0.06431,0.156172 0,0.09187 -0.06431,0.156172 -0.05512,0.05512 -0.146985,0.05512 h -0.358278 q -0.744114,0 -0.744114,-0.597129 V 23.65219 q 0,-0.275598 -0.174546,-0.422584 -0.165359,-0.146985 -0.468516,-0.146985 -0.845168,0 -1.341244,0.881913 v 2.103732 q 0,0.09187 -0.07349,0.146985 -0.07349,0.06431 -0.174545,0.06431 -0.101053,0 -0.174546,-0.06431 -0.07349,-0.05512 -0.07349,-0.146985 v -2.710047 q 0,-0.174546 -0.174546,-0.174546 z m 5.346609,2.884593 q 0,0.09187 -0.07349,0.146985 -0.07349,0.06431 -0.174545,0.06431 -0.101053,0 -0.174545,-0.06431 -0.07349,-0.05512 -0.07349,-0.146985 V 23.183676 H 21.06142 q -0.09187,0 -0.156172,-0.05512 -0.05512,-0.06431 -0.05512,-0.156172 0,-0.09187 0.05512,-0.156173 0.06431,-0.06431 0.156172,-0.06431 h 0.8911 q 0.211292,0 0.211292,0.211292 z m -0.514449,-4.694353 q -0.08268,-0.09187 -0.08268,-0.220478 0,-0.128612 0.08268,-0.220478 0.08268,-0.09187 0.229665,-0.09187 0.146985,0 0.229665,0.09187 0.09187,0.09187 0.09187,0.220478 0,0.128612 -0.09187,0.220478 -0.08268,0.09187 -0.229665,0.09187 -0.146986,0 -0.229665,-0.09187 z m 4.30851,3.931865 q 0.07349,-0.110239 0.146986,-0.110239 0.08268,0 0.165358,0.03675 0.128613,0.05512 0.128613,0.156172 0,0.09187 -0.02756,0.137799 -0.468517,0.753302 -1.488229,0.753302 -0.780861,0 -1.249378,-0.523637 -0.468516,-0.532822 -0.468516,-1.304497 0,-0.771674 0.486889,-1.276937 0.496077,-0.51445 1.221818,-0.51445 0.734928,0 1.276938,0.339904 0.110239,0.07349 0.110239,0.174546 v 0.771674 q 0,0.09187 -0.07349,0.156172 -0.07349,0.05512 -0.174545,0.05512 -0.101053,0 -0.174546,-0.05512 -0.07349,-0.06431 -0.07349,-0.156172 v -0.652248 q -0.367464,-0.211292 -0.881913,-0.211292 -0.51445,0 -0.872727,0.385837 -0.358278,0.385837 -0.358278,1.001339 0,0.606316 0.339905,1.00134 0.34909,0.385837 0.8911,0.385837 0.716555,0 1.074832,-0.551196 z m 3.65627,-0.542009 q -0.606316,-0.165359 -1.038086,-0.165359 -0.422583,0 -0.698181,0.165359 -0.266412,0.165358 -0.266412,0.468516 0,0.293971 0.174546,0.45933 0.174545,0.165359 0.477703,0.165359 0.845167,0 1.35043,-0.91866 z m 0.734928,0.992152 h 0.358277 q 0.09187,0 0.146986,0.06431 0.06431,0.06431 0.06431,0.156172 0,0.09187 -0.06431,0.156172 -0.05512,0.05512 -0.146986,0.05512 h -0.40421 q -0.330718,0 -0.51445,-0.146986 -0.174545,-0.146986 -0.174545,-0.413397 0,-0.04593 0.0092,-0.101053 -0.48689,0.753302 -1.414737,0.753302 -0.514449,0 -0.808421,-0.275598 -0.284784,-0.275598 -0.284784,-0.762488 0,-0.496077 0.385837,-0.771675 0.395024,-0.284784 0.97378,-0.284784 0.587942,0 1.139138,0.192918 v -0.633875 q 0,-0.440957 -0.321531,-0.569569 -0.248038,-0.09187 -0.688995,-0.09187 -0.43177,0 -0.799234,0.146985 v 0.578756 q 0,0.09187 -0.07349,0.156172 -0.07349,0.05512 -0.174545,0.05512 -0.101053,0 -0.174546,-0.05512 -0.07349,-0.06431 -0.07349,-0.156172 v -0.698181 q 0,-0.119426 0.119426,-0.183732 0.450144,-0.266412 1.194258,-0.266412 0.744115,0 1.111579,0.248038 0.367464,0.238852 0.367464,0.835981 v 1.83732 q 0,0.174545 0.248038,0.174545 z m 0.937041,0.07349 v -0.744114 q 0,-0.09187 0.07349,-0.146986 0.07349,-0.06431 0.174545,-0.06431 0.101053,0 0.174546,0.06431 0.07349,0.05512 0.07349,0.146986 v 0.624688 q 0.440957,0.146986 0.91866,0.146986 1.047273,0 1.047273,-0.587942 0,-0.440957 -0.982966,-0.652249 -0.04593,-0.0092 -0.202106,-0.04593 -0.156172,-0.03675 -0.257224,-0.05512 -0.101053,-0.02756 -0.339905,-0.110239 -0.229665,-0.09187 -0.330717,-0.183732 -0.275598,-0.248038 -0.275598,-0.606315 0,-0.367464 0.238851,-0.587943 0.248039,-0.229665 0.54201,-0.293971 0.293971,-0.07349 0.643062,-0.07349 0.643062,0 1.185071,0.248038 0.165359,0.07349 0.165359,0.202106 v 0.707368 q 0,0.09187 -0.07349,0.156172 -0.07349,0.05512 -0.174545,0.05512 -0.101053,0 -0.174546,-0.05512 -0.07349,-0.06431 -0.07349,-0.156172 v -0.587943 q -0.367464,-0.146985 -0.854354,-0.146985 -0.937033,0 -0.937033,0.532823 0,0.192918 0.119425,0.266411 0.128613,0.07349 0.183732,0.110239 0.06431,0.03675 0.220479,0.07349 0.220478,0.05512 0.450143,0.101053 0.229665,0.04593 0.376651,0.08268 0.146985,0.03675 0.367464,0.128612 0.229665,0.08268 0.358277,0.192919 0.321531,0.257225 0.321531,0.670622 0,0.413397 -0.275598,0.661435 -0.266411,0.238852 -0.587942,0.303158 -0.312345,0.07349 -0.679809,0.07349 -0.725741,0 -1.249377,-0.238852 -0.165359,-0.07349 -0.165359,-0.211292 z"
           id="path10"
           style="fill:#e3e2db;fill-opacity:1" />
        <path
           d="m 4.8103159,30.697334 q -0.5236362,0 -0.8359806,0.37665 -0.3123444,0.376651 -0.3123444,1.019713 0,0.643062 0.3031578,1.010526 0.3123444,0.367464 0.8451672,0.367464 0.7716744,0 1.2310044,-0.872727 V 31.24853 Q 5.8024687,31.018865 5.4625645,30.862693 5.1318469,30.697334 4.8103159,30.697334 Z M 6.0413203,27.344225 H 5.4350047 q -0.091866,0 -0.1561722,-0.05512 -0.05512,-0.06431 -0.05512,-0.156172 0,-0.09187 0.05512,-0.156172 0.064306,-0.06431 0.1561722,-0.06431 h 0.8543538 q 0.1010526,0 0.1745454,0.06431 0.073493,0.06431 0.073493,0.156172 v 6.063156 q 0,0.174545 0.1837319,0.174545 h 0.4225836 q 0.091866,0 0.1469856,0.06431 0.064306,0.05512 0.064306,0.146986 0,0.09187 -0.064306,0.156172 -0.05512,0.06431 -0.1469856,0.06431 H 6.6568225 q -0.597129,0 -0.5787558,-0.652248 -0.2021052,0.312344 -0.5328228,0.532823 -0.321531,0.211291 -0.734928,0.211291 -0.8176074,0 -1.2310044,-0.523636 -0.4042103,-0.523636 -0.4042103,-1.29531 0,-0.771675 0.4225835,-1.286124 0.4317702,-0.51445 1.1758848,-0.51445 0.7441146,0 1.2677508,0.48689 z m 3.5368455,6.127462 q 0.5603822,0 0.9094732,-0.385837 0.358278,-0.385838 0.358278,-0.992153 0,-0.615502 -0.358278,-1.001339 -0.349091,-0.395024 -0.9094732,-0.395024 -0.5603825,0 -0.9186599,0.395024 -0.3490908,0.385837 -0.3490908,1.001339 0,0.606315 0.3490908,0.992153 0.3582774,0.385837 0.9186599,0.385837 z M 8.3012285,33.389007 Q 7.8143387,32.874558 7.8143387,32.08451 q 0,-0.790047 0.4960764,-1.29531 0.4960764,-0.51445 1.2677507,-0.51445 0.7716742,0 1.2585642,0.51445 0.496076,0.505263 0.496076,1.304497 0,0.790047 -0.496076,1.29531 -0.48689,0.505263 -1.2677508,0.505263 -0.7716743,0 -1.2677507,-0.505263 z m 6.3663085,0.293972 v -5.034257 h -0.551196 q -0.09187,0 -0.156172,-0.05512 -0.05512,-0.06431 -0.05512,-0.156172 0,-0.09187 0.05512,-0.156172 0.06431,-0.06431 0.156172,-0.06431 h 0.762488 q 0.146986,0 0.238852,0.110239 l 2.305836,3.151004 2.29665,-3.141817 q 0.08268,-0.119426 0.229665,-0.119426 h 0.780861 q 0.09187,0 0.146986,0.06431 0.06431,0.06431 0.06431,0.156172 0,0.09187 -0.06431,0.156172 -0.05512,0.05512 -0.146986,0.05512 h -0.551196 v 4.584113 q 0,0.137799 0.211292,0.137799 h 0.339904 q 0.09187,0 0.146986,0.06431 0.06431,0.06431 0.06431,0.156173 0,0.09187 -0.06431,0.156172 -0.05512,0.05512 -0.146986,0.05512 h -0.339904 q -0.707368,0 -0.707368,-0.569569 v -4.05129 l -2.057798,2.811099 q -0.07349,0.101053 -0.202106,0.101053 -0.128612,0 -0.202105,-0.101053 L 15.163614,29.18155 v 4.501434 q 0,0.09187 -0.07349,0.146985 -0.07349,0.06431 -0.174545,0.06431 -0.101053,0 -0.174546,-0.06431 -0.07349,-0.05512 -0.07349,-0.146985 z m 9.425444,-1.304498 q -0.606316,-0.165358 -1.038086,-0.165358 -0.422583,0 -0.698181,0.165358 -0.266412,0.165359 -0.266412,0.468517 0,0.293971 0.174546,0.45933 0.174545,0.165359 0.477703,0.165359 0.845167,0 1.35043,-0.91866 z m 0.734928,0.992153 h 0.358277 q 0.09187,0 0.146986,0.06431 0.06431,0.06431 0.06431,0.156173 0,0.09187 -0.06431,0.156172 -0.05512,0.05512 -0.146986,0.05512 h -0.40421 q -0.330718,0 -0.51445,-0.146985 -0.174545,-0.146986 -0.174545,-0.413397 0,-0.04593 0.0092,-0.101053 -0.486889,0.753301 -1.414736,0.753301 -0.514449,0 -0.808421,-0.275598 -0.284784,-0.275598 -0.284784,-0.762487 0,-0.496077 0.385837,-0.771675 0.395024,-0.284784 0.97378,-0.284784 0.587942,0 1.139138,0.192918 v -0.633875 q 0,-0.440957 -0.321531,-0.569569 -0.248038,-0.09187 -0.688995,-0.09187 -0.43177,0 -0.799234,0.146985 v 0.578756 q 0,0.09187 -0.07349,0.156172 -0.07349,0.05512 -0.174545,0.05512 -0.101053,0 -0.174546,-0.05512 -0.07349,-0.06431 -0.07349,-0.156172 v -0.698181 q 0,-0.119426 0.119426,-0.183732 0.450144,-0.266412 1.194258,-0.266412 0.744115,0 1.111579,0.248038 0.367464,0.238852 0.367464,0.835981 v 1.83732 q 0,0.174545 0.248038,0.174545 z m 0.780869,-3.004018 h 0.468516 q 0.578756,0 0.597129,0.624689 0.496077,-0.716555 1.175885,-0.716555 0.385837,0 0.652249,0.146986 0.128612,0.07349 0.128612,0.192918 v 0.771675 q 0,0.09187 -0.07349,0.156172 -0.07349,0.05512 -0.174545,0.05512 -0.101053,0 -0.174545,-0.05512 -0.07349,-0.06431 -0.07349,-0.156172 v -0.643062 q -0.119426,-0.04593 -0.358278,-0.04593 -0.238851,0 -0.542009,0.229665 -0.303158,0.220478 -0.523636,0.661435 v 2.094545 q 0,0.09187 -0.07349,0.146985 -0.07349,0.06431 -0.174545,0.06431 -0.101053,0 -0.174546,-0.06431 -0.07349,-0.05512 -0.07349,-0.146985 v -2.710047 q 0,-0.174546 -0.183732,-0.174546 H 25.60879 q -0.09187,0 -0.156172,-0.05512 -0.05512,-0.06431 -0.05512,-0.156172 0,-0.09187 0.05512,-0.156173 0.06431,-0.06431 0.156172,-0.06431 z"
           id="path11"
           style="fill:#e3e2db;fill-opacity:1" />
      </g>
      <path
         id="path1"
         style="fill:#e3e2db;stroke:none;stroke-width:0.395857;stroke-opacity:1;fill-opacity:1"
         d="m 49.56976,7.9862469 c -0.166568,0.00446 -0.282111,0.293222 -0.320658,0.9300351 -1.237934,20.451347 -20.018673,21.776087 -20.018673,21.776087 l 18.05122,4.6631 -5.532619,-0.227615 -1.982366,1.000606 12.834137,0.528279 1.982368,-1.001033 -5.210702,-0.21437 c 0.681669,-1.631539 3.128524,-7.84838 3.226462,-13.245859 C 52.715757,15.756623 50.443222,7.9623873 49.56976,7.9862469 Z" />
      <path
         style="display:inline;fill:#e3e2db;stroke-width:2.165;stroke-dasharray:none;fill-opacity:1"
         d="m 49.115408,34.507807 c 4.156566,-0.488416 8.320762,-0.911893 12.490556,-1.270225 3.313238,-0.284724 6.66668,-0.527007 9.950105,0 1.065948,0.17109 2.117156,0.422301 3.175564,0.635114 5.427864,1.091375 11.058879,1.163567 16.512939,0.211704"
         id="path18-0"
         inkscape:path-effect="#path-effect18-0"
         inkscape:original-d="m 49.115408,34.507807 c 4.018076,-1.539756 8.299868,-1.049663 12.490556,-1.270225 3.30305,-0.173844 6.645116,-0.455861 9.950105,0 1.069359,0.147498 2.103195,0.511379 3.175564,0.635114 5.400299,0.62311 11.081671,0.211704 16.512939,0.211704"
         transform="matrix(0.44327341,0,0,0.76209237,-18.473755,9.6347756)" />
      <path
         style="display:inline;fill:#e3e2db;stroke-width:2.165;stroke-dasharray:none;fill-opacity:1"
         d="m 76.213564,26.886453 c 4.367376,-0.302583 8.750808,-0.373283 13.12567,-0.211704 4.516867,0.166824 9.03188,0.581071 13.549076,0.423407 2.19788,-0.07671 4.39103,-0.288953 6.56284,-0.635113"
         id="path19"
         inkscape:path-effect="#path-effect19-6"
         inkscape:original-d="m 76.213564,26.886453 c 4.383667,-1.760356 8.651547,-0.7486 13.12567,-0.211704 4.493193,0.539181 9.034274,0.423407 13.549076,0.423407 2.14056,0 4.72588,0.283366 6.56284,-0.635113"
         transform="matrix(0.44319456,-0.00836074,0.03696365,1.9594054,-17.787156,-14.749479)" />
      <path
         style="display:inline;fill:#e3e2db;stroke-width:2.165;stroke-dasharray:none;fill-opacity:1"
         d="m 26.039635,34.0844 c 1.710458,-1.30303 3.787722,-2.119098 5.927722,-2.328749 1.124793,-0.110194 2.258494,-0.05633 3.387268,0 4.513807,0.22526 9.030123,0.488459 13.549079,0.42341 1.695139,-0.0244 3.389612,-0.095 5.080905,-0.211704"
         id="path20"
         inkscape:path-effect="#path-effect20-3"
         inkscape:original-d="m 26.039635,34.0844 c 1.903235,-0.810488 3.894209,-1.876856 5.927722,-2.328749 0.920298,-0.20451 2.518453,0 3.387268,0 4.542771,0 9.008014,0.42341 13.549079,0.42341 1.347417,0 3.776382,0.440558 5.080905,-0.211704"
         transform="matrix(0.44277861,0.02093843,-0.02476046,0.52360187,17.986026,16.845401)" />
    </g>
  </g>
</svg>
